<svg width="512" height="583" viewBox="0 0 512 583" fill="none" xmlns="http://www.w3.org/2000/svg">
<path d="M255.841 183.245C271.94 187.399 279.989 197.532 279.989 213.646V214.426C280.091 219.293 278.997 224.111 276.803 228.467C274.609 232.823 271.381 236.586 267.394 239.433C262.206 243.62 255.722 245.914 249.03 245.928C246.109 245.919 243.2 245.572 240.361 244.897C228.785 241.972 216.886 240.487 204.94 240.478C166.099 240.478 132.949 254.078 105.489 281.277C78.0281 308.477 64.2979 341.401 64.2979 380.049C64.2979 418.688 78.0281 451.607 105.489 478.806C132.958 505.848 166.109 519.364 204.94 519.355C216.872 519.343 228.761 517.939 240.361 515.173C243.2 514.493 246.109 514.142 249.03 514.128C255.724 514.147 262.208 516.445 267.394 520.637C271.401 523.451 274.646 527.2 276.843 531.552C279.04 535.904 280.12 540.724 279.989 545.588V546.09C279.989 562.37 271.94 572.592 255.841 576.755C239.2 580.917 222.103 583.014 204.94 583C148.443 583 100.16 563.16 60.0902 523.481C20.0207 483.801 -0.00937847 435.972 3.29416e-06 379.993C3.29416e-06 324.033 20.0301 276.208 60.0902 236.519C100.15 196.831 148.434 176.991 204.94 177C222.103 176.979 239.202 179.076 255.841 183.245Z" fill="url(#paint0_linear_5_74)"/>
<path d="M480.306 0H228.569C220.152 0 212.08 3.35622 206.128 9.33032C200.177 15.3044 196.833 23.407 196.833 31.8557C196.84 40.2982 200.188 48.3922 206.139 54.358C212.09 60.3239 220.158 63.6731 228.569 63.6694H322.674V303.448C304.558 296.4 285.285 292.833 265.856 292.932C199.665 292.932 146 332.35 146 380.966C146 429.583 199.665 469 265.856 469C331.644 469 385.043 430.073 385.685 381.862C385.994 380.012 386.148 378.138 386.145 376.261V63.6694H480.264C488.681 63.6694 496.753 60.3132 502.705 54.3391C508.656 48.365 512 40.2624 512 31.8137C511.985 23.3807 508.641 15.2974 502.701 9.33437C496.76 3.37135 488.707 0.0148077 480.306 0Z" fill="url(#paint1_linear_5_74)" fill-opacity="0.83"/>
<defs>
<linearGradient id="paint0_linear_5_74" x1="140" y1="177" x2="140" y2="583" gradientUnits="userSpaceOnUse">
<stop stop-color="#F9471C"/>
<stop offset="0.661458" stop-color="#FD7351"/>
</linearGradient>
<linearGradient id="paint1_linear_5_74" x1="329" y1="0" x2="329" y2="469" gradientUnits="userSpaceOnUse">
<stop stop-color="#4200B1"/>
<stop offset="0.619792" stop-color="#7659F2"/>
</linearGradient>
</defs>
</svg>
