<svg width="244" height="280" viewBox="0 0 244 280" fill="none" xmlns="http://www.w3.org/2000/svg">
<path d="M119.453 0.246118C121.141 -0.0820393 122.883 -0.0820393 124.572 0.246118L233.489 22.1233C239.589 23.3265 244 28.7411 244 34.9761C244 41.2111 239.589 46.6256 233.489 47.8289L191.719 56.2516V87.4812C191.719 126.149 160.515 157.488 122.012 157.488C83.5097 157.488 52.3048 126.149 52.3048 87.4812V56.2516L26.1645 51.0011V86.6061L34.7145 129.485C35.2047 132.056 34.5512 134.736 32.9174 136.759C31.2836 138.783 28.7785 139.986 26.1645 139.986H8.73766C6.12364 139.986 3.67299 138.838 1.98476 136.759C0.296537 134.681 -0.35697 132.056 0.187619 129.485L8.73766 86.6061V47.3367C3.56407 45.5318 0.0242426 40.6094 0.0242426 34.9761C0.0242426 28.7411 4.43541 23.3265 10.5348 22.1233L119.453 0.246118ZM70.3306 176.74L115.64 225.088C119.071 228.753 124.898 228.753 128.329 225.088L173.639 176.74C213.775 184.889 243.946 220.494 243.946 263.209C243.946 272.507 236.43 280 227.227 280H16.7431C7.53957 280 0.0242426 272.452 0.0242426 263.209C0.0242426 220.494 30.2489 184.889 70.3306 176.74Z" fill="#2E315B"/>
</svg>
