<svg width="248" height="191" viewBox="0 0 248 191" fill="none" xmlns="http://www.w3.org/2000/svg">
<path d="M178.958 187.503C183.683 192.166 191.355 192.166 196.079 187.503L244.457 139.75C249.181 135.087 249.181 127.514 244.457 122.85C239.732 118.187 232.06 118.187 227.336 122.85L199.594 150.233L199.594 11.9381C199.594 5.33483 194.19 -6.44641e-06 187.5 -5.86158e-06C180.81 -5.27675e-06 175.406 5.33483 175.406 11.9381L175.406 150.233L147.664 122.85C142.94 118.187 135.268 118.187 130.543 122.85C125.819 127.514 125.819 135.087 130.543 139.75L178.921 187.503L178.958 187.503Z" fill="url(#paint0_linear_5_98)"/>
<path d="M72.4652 3.49748C67.5066 -1.16583 59.4538 -1.16583 54.4952 3.49748L3.71896 51.2498C-1.23965 55.9131 -1.23965 63.4864 3.71896 68.1497C8.67757 72.813 16.7304 72.813 21.689 68.1497L50.8059 40.7667L50.8059 179.062C50.8059 185.665 56.4786 191 63.5 191C70.5214 191 76.194 185.665 76.194 179.062L76.194 40.7667L105.311 68.1497C110.27 72.813 118.322 72.813 123.281 68.1497C128.24 63.4864 128.24 55.9131 123.281 51.2498L72.5048 3.49748H72.4652Z" fill="url(#paint1_linear_5_98)"/>
<defs>
<linearGradient id="paint0_linear_5_98" x1="187.5" y1="191" x2="187.5" y2="-9.96971e-06" gradientUnits="userSpaceOnUse">
<stop stop-color="#4200B1"/>
<stop offset="1" stop-color="#F9471C"/>
</linearGradient>
<linearGradient id="paint1_linear_5_98" x1="63.5" y1="0" x2="63.5" y2="191" gradientUnits="userSpaceOnUse">
<stop stop-color="#4200B1"/>
<stop offset="1" stop-color="#F9471C"/>
</linearGradient>
</defs>
</svg>
