<svg width="142" height="193" viewBox="0 0 142 193" fill="none" xmlns="http://www.w3.org/2000/svg">
<path d="M30.9204 193C25.9663 192.97 21.0743 191.874 16.5645 189.784C11.6871 187.592 7.53153 184.016 4.59424 179.481C1.65695 174.947 0.0620467 169.647 0 164.214V28.8051C0.0620467 23.3719 1.65695 18.0716 4.59424 13.5374C7.53153 9.00323 11.6871 5.42675 16.5645 3.23513C22.1766 0.532872 28.4205 -0.507926 34.5846 0.231335C40.7487 0.970596 46.5852 3.46018 51.4288 7.4164L131.885 75.1206C135.04 77.6811 137.588 80.934 139.339 84.6371C141.09 88.3403 142 92.3984 142 96.5094C142 100.62 141.09 104.678 139.339 108.382C137.588 112.085 135.04 115.338 131.885 117.898L51.4288 185.602C45.6293 190.397 38.3872 193.009 30.9204 193Z" fill="white"/>
</svg>
