<svg width="324" height="260" viewBox="0 0 324 260" fill="none" xmlns="http://www.w3.org/2000/svg">
<path d="M81 32.5C81 14.5742 95.5294 0 113.4 0H291.6C309.471 0 324 14.5742 324 32.5V178.75C324 196.676 309.471 211.25 291.6 211.25H170.505C164.531 198.301 155.368 187.129 143.978 178.75H194.4V162.5C194.4 153.512 201.639 146.25 210.6 146.25H243C251.961 146.25 259.2 153.512 259.2 162.5V178.75H291.6V32.5H113.4V57.4336C103.883 51.8984 92.7956 48.75 81 48.75V32.5ZM81 162.5C54.1688 162.5 32.4 140.664 32.4 113.75C32.4 86.8359 54.1688 65 81 65C107.831 65 129.6 86.8359 129.6 113.75C129.6 140.664 107.831 162.5 81 162.5ZM67.4831 178.75H94.4663C131.777 178.75 162 209.066 162 246.441C162 253.906 155.976 260 148.483 260H13.5169C6.02438 260 0 253.957 0 246.441C0 209.066 30.2231 178.75 67.4831 178.75Z" fill="#2E315B"/>
</svg>
