<svg width="190" height="237" viewBox="0 0 190 237" fill="none" xmlns="http://www.w3.org/2000/svg">
<path d="M177.773 213.331H12.0899C8.95118 213.331 5.94103 214.578 3.72162 216.797C1.50222 219.017 0.255371 222.027 0.255371 225.165C0.255371 228.304 1.50222 231.314 3.72162 233.534C5.94103 235.753 8.95118 237 12.0899 237H177.773C180.912 237 183.922 235.753 186.141 233.534C188.361 231.314 189.608 228.304 189.608 225.165C189.608 222.027 188.361 219.017 186.141 216.797C183.922 214.578 180.912 213.331 177.773 213.331Z" fill="white"/>
<path d="M12.0893 189.661H13.1544L62.5044 185.164C67.9104 184.625 72.9665 182.244 76.8242 178.418L183.335 71.9076C187.469 67.5403 189.703 61.7123 189.548 55.7006C189.392 49.689 186.86 43.9841 182.506 39.8361L150.08 7.40947C145.848 3.43421 140.302 1.15325 134.498 1.00051C128.693 0.847762 123.035 2.83388 118.6 6.58105L12.0893 113.092C8.26401 116.949 5.88218 122.006 5.34366 127.411L0.254818 176.761C0.0953948 178.495 0.320314 180.242 0.913542 181.879C1.50677 183.515 2.4537 185 3.68683 186.229C4.79265 187.326 6.1041 188.194 7.54599 188.783C8.98788 189.372 10.5318 189.67 12.0893 189.661ZM133.63 23.9778L165.938 56.286L142.269 79.3634L110.553 47.6468L133.63 23.9778ZM28.3026 129.423L94.931 63.2684L126.884 95.2216L60.6109 161.495L25.1073 164.809L28.3026 129.423Z" fill="white"/>
</svg>
